<svg width="262" height="144" fill="none" xmlns="http://www.w3.org/2000/svg"><g clip-path="url(#a)"><path d="M109.298 5.194c-6.038-.122-13.013 1.524-20.295 4.742C87.16 10.75 86 12.638 86 14.66v57.97c0 1.873 1.936 3.17 3.625 2.375 20.392-9.587 35.488 1.784 36.134 2.272a2.55 2.55 0 0 0 1.574.534c2.002 0 2.584-1.844 2.584-2.59V12.975a2.6 2.6 0 0 0-1.095-2.12c-.31-.224-7.834-5.449-19.524-5.661Zm66.699 4.742c-7.284-3.208-14.286-4.8-20.295-4.744-11.696.213-19.069 5.44-19.521 5.661a2.585 2.585 0 0 0-1.098 2.122V75.08c0 .853.565 2.734 2.584 2.734a2.57 2.57 0 0 0 1.579-.54c.634-.49 15.732-11.86 36.134-2.27 1.689.794 3.625-.503 3.625-2.374v-57.97c-.15-2.02-1.167-3.91-3.008-4.723Z" fill="#3C536E"/></g><path fill="#3FC1C9" d="M0 109h262v23H0zM0 139h262v5H0z"/><path d="M48.241 110.515h-6.958l-.037-4.268h5.64c1.015 0 1.825-.111 2.431-.334.606-.235 1.046-.575 1.318-1.02.284-.446.427-1.002.427-1.67 0-.767-.143-1.386-.427-1.856-.285-.47-.736-.81-1.355-1.02-.606-.223-1.391-.334-2.356-.334h-3.192V122H37.22V94.984h9.704c1.67 0 3.16.155 4.471.464 1.312.297 2.425.755 3.34 1.373.928.619 1.633 1.398 2.116 2.338.482.928.723 2.023.723 3.284a6.983 6.983 0 0 1-.705 3.099c-.47.965-1.255 1.75-2.356 2.356-1.089.594-2.58.903-4.472.928l-1.8 1.689ZM47.981 122h-8.275l2.227-5.01h6.048c.891 0 1.602-.136 2.134-.408.544-.284.934-.656 1.17-1.113.247-.47.37-.99.37-1.559 0-.693-.117-1.292-.352-1.8a2.413 2.413 0 0 0-1.076-1.169c-.495-.284-1.157-.426-1.986-.426h-5.473l.037-4.268h6.55l1.521 1.707c1.806-.074 3.235.179 4.286.761 1.064.581 1.825 1.348 2.282 2.301.458.952.687 1.948.687 2.987 0 1.769-.384 3.247-1.15 4.435-.755 1.187-1.887 2.078-3.396 2.671-1.51.594-3.377.891-5.604.891Zm25.198-4.88v-15.196h6.271V122h-5.863l-.408-4.88Zm.593-4.082 1.633-.037c0 1.348-.16 2.598-.482 3.748-.322 1.138-.798 2.128-1.429 2.969a6.52 6.52 0 0 1-2.3 1.967c-.904.457-1.949.686-3.136.686-.99 0-1.9-.136-2.728-.408a5.53 5.53 0 0 1-2.115-1.317c-.594-.607-1.058-1.38-1.392-2.32-.321-.952-.482-2.09-.482-3.414v-12.988h6.253v13.025c0 .446.055.829.167 1.151.111.321.272.593.482.816.21.21.47.371.78.482.321.099.686.149 1.094.149.94 0 1.676-.198 2.208-.594.532-.396.903-.934 1.114-1.614.222-.68.334-1.447.334-2.301Zm15.438-6.865V122h-6.253v-20.076h5.863l.39 4.249Zm-.76 5.102-1.43.037c0-1.41.168-2.708.502-3.896.334-1.187.828-2.22 1.484-3.099a6.838 6.838 0 0 1 2.412-2.041c.965-.482 2.078-.723 3.34-.723.878 0 1.676.136 2.393.408a4.6 4.6 0 0 1 1.856 1.243c.52.557.915 1.287 1.187 2.19.285.89.427 1.96.427 3.21V122h-6.253v-12.599c0-.853-.099-1.496-.297-1.929-.185-.433-.457-.724-.816-.872-.359-.149-.798-.223-1.317-.223-.545 0-1.033.124-1.466.371a3.414 3.414 0 0 0-1.114 1.039 5.019 5.019 0 0 0-.686 1.54 8.022 8.022 0 0 0-.223 1.948Zm11.466 0-1.744.037c0-1.41.154-2.708.464-3.896.321-1.187.798-2.22 1.428-3.099a6.686 6.686 0 0 1 2.394-2.041c.952-.482 2.06-.723 3.321-.723.916 0 1.757.136 2.524.408a4.87 4.87 0 0 1 1.985 1.317c.557.606.99 1.41 1.299 2.412.309.99.464 2.215.464 3.674V122h-6.272v-12.636c0-.829-.099-1.453-.297-1.874-.185-.433-.457-.723-.816-.872-.359-.161-.785-.241-1.28-.241-.594 0-1.107.124-1.54.371a3.245 3.245 0 0 0-1.095 1.039 4.67 4.67 0 0 0-.631 1.54 8.726 8.726 0 0 0-.204 1.948Zm22.024-5.102V122h-6.252v-20.076h5.863l.389 4.249Zm-.76 5.102-1.429.037c0-1.41.167-2.708.501-3.896.334-1.187.829-2.22 1.484-3.099a6.846 6.846 0 0 1 2.412-2.041c.965-.482 2.079-.723 3.34-.723.879 0 1.676.136 2.394.408.717.26 1.336.674 1.855 1.243.52.557.916 1.287 1.188 2.19.284.89.427 1.96.427 3.21V122h-6.253v-12.599c0-.853-.099-1.496-.297-1.929-.186-.433-.458-.724-.817-.872-.358-.149-.797-.223-1.317-.223-.544 0-1.033.124-1.466.371a3.41 3.41 0 0 0-1.113 1.039 5.022 5.022 0 0 0-.687 1.54 8.047 8.047 0 0 0-.222 1.948Zm11.466 0-1.744.037c0-1.41.155-2.708.464-3.896.322-1.187.798-2.22 1.429-3.099a6.675 6.675 0 0 1 2.393-2.041c.953-.482 2.06-.723 3.322-.723.915 0 1.756.136 2.523.408a4.873 4.873 0 0 1 1.986 1.317c.556.606.989 1.41 1.298 2.412.31.99.464 2.215.464 3.674V122h-6.271v-12.636c0-.829-.099-1.453-.297-1.874-.186-.433-.458-.723-.817-.872-.358-.161-.785-.241-1.28-.241-.594 0-1.107.124-1.54.371a3.245 3.245 0 0 0-1.095 1.039 4.691 4.691 0 0 0-.63 1.54 8.724 8.724 0 0 0-.205 1.948Zm26.144 5.678v-8.275c0-.569-.08-1.058-.241-1.466a1.933 1.933 0 0 0-.761-.946c-.346-.235-.81-.353-1.392-.353-.47 0-.872.08-1.206.241a1.656 1.656 0 0 0-.76.724c-.173.322-.26.73-.26 1.225h-6.253c0-.928.204-1.788.612-2.58a6.386 6.386 0 0 1 1.782-2.096c.779-.594 1.707-1.052 2.783-1.373 1.088-.334 2.301-.501 3.636-.501 1.596 0 3.019.266 4.268.798 1.262.531 2.258 1.329 2.987 2.393.73 1.052 1.095 2.375 1.095 3.971v8.22c0 1.311.074 2.307.223 2.987a6.83 6.83 0 0 0 .631 1.763V122h-6.272c-.297-.618-.519-1.373-.668-2.264a18.658 18.658 0 0 1-.204-2.783Zm.761-7.218.037 3.34h-2.765c-.581 0-1.076.081-1.484.241a2.502 2.502 0 0 0-.965.668 2.665 2.665 0 0 0-.52.928 4 4 0 0 0-.148 1.095c0 .371.087.705.26 1.002.185.284.433.507.742.668.309.161.656.241 1.039.241.693 0 1.28-.13 1.763-.39.495-.272.872-.6 1.132-.983.259-.384.389-.742.389-1.076l1.373 2.56a17.04 17.04 0 0 1-.853 1.503 6.563 6.563 0 0 1-1.169 1.41c-.458.421-1.021.767-1.689 1.039-.668.26-1.478.39-2.43.39-1.237 0-2.375-.253-3.414-.761-1.027-.507-1.85-1.212-2.468-2.115-.619-.915-.928-1.967-.928-3.154 0-1.039.186-1.967.557-2.783.383-.817.958-1.509 1.725-2.079.767-.569 1.744-1.001 2.932-1.298 1.187-.297 2.585-.446 4.193-.446h2.691Zm15.307-2.839V122h-6.253v-20.076h5.845l.408 4.972Zm5.938-5.121-.111 5.808a84.108 84.108 0 0 0-1.002-.093 12.404 12.404 0 0 0-1.058-.055c-.73 0-1.361.086-1.893.259a3.2 3.2 0 0 0-1.298.743 2.911 2.911 0 0 0-.743 1.224c-.148.495-.216 1.07-.204 1.726l-1.132-.742c0-1.349.13-2.573.39-3.674.272-1.114.656-2.072 1.151-2.876.494-.817 1.094-1.441 1.799-1.874.705-.446 1.497-.668 2.375-.668.31 0 .613.018.909.055.31.038.582.093.817.167Zm8.758.149V122h-6.272v-20.076h6.272Zm-6.643-5.177c0-.89.322-1.62.965-2.19.643-.568 1.478-.853 2.505-.853s1.862.285 2.505.854c.643.569.965 1.298.965 2.19 0 .89-.322 1.62-.965 2.188-.643.57-1.478.854-2.505.854s-1.862-.285-2.505-.854c-.643-.569-.965-1.298-.965-2.189Zm20.225 25.624c-1.633 0-3.093-.253-4.379-.761-1.287-.519-2.375-1.23-3.266-2.133a9.47 9.47 0 0 1-2.022-3.118 10.176 10.176 0 0 1-.687-3.729v-.705c0-1.472.204-2.833.613-4.082.408-1.262 1.014-2.363 1.818-3.303s1.812-1.67 3.024-2.189c1.213-.532 2.623-.798 4.231-.798 1.422 0 2.696.229 3.822.686a7.778 7.778 0 0 1 2.857 1.967c.792.854 1.392 1.886 1.8 3.099.421 1.212.631 2.573.631 4.082v2.542h-16.402v-3.915h10.298v-.483c.012-.668-.106-1.237-.353-1.707a2.424 2.424 0 0 0-1.039-1.076c-.458-.247-1.014-.371-1.67-.371-.68 0-1.243.148-1.688.445a3.027 3.027 0 0 0-1.021 1.225 6.423 6.423 0 0 0-.501 1.763 14.43 14.43 0 0 0-.148 2.115v.705c0 .742.099 1.416.297 2.022.21.606.507 1.126.89 1.559.396.421.866.748 1.41.983.557.235 1.188.353 1.893.353.853 0 1.695-.161 2.523-.483.829-.321 1.54-.853 2.134-1.595l2.839 3.377c-.408.581-.99 1.144-1.744 1.688-.742.544-1.633.99-2.672 1.336-1.039.334-2.202.501-3.488.501Zm21.505-6.012c0-.346-.118-.643-.353-.89-.223-.26-.618-.495-1.187-.705-.569-.223-1.367-.446-2.394-.668a17.262 17.262 0 0 1-2.765-.835 9.567 9.567 0 0 1-2.245-1.262 5.58 5.58 0 0 1-1.521-1.763c-.359-.68-.538-1.459-.538-2.338 0-.853.179-1.657.538-2.412a5.986 5.986 0 0 1 1.614-2.022c.717-.594 1.59-1.058 2.616-1.392 1.027-.346 2.196-.519 3.507-.519 1.806 0 3.365.278 4.676.835 1.311.544 2.319 1.311 3.024 2.3.718.978 1.076 2.11 1.076 3.396h-6.252c0-.507-.087-.94-.26-1.299a1.648 1.648 0 0 0-.798-.816c-.371-.198-.866-.297-1.484-.297-.433 0-.829.08-1.188.241a2.139 2.139 0 0 0-.835.668c-.21.285-.315.619-.315 1.002 0 .272.061.52.185.742.136.21.34.408.612.594a5.14 5.14 0 0 0 1.04.482c.42.136.927.26 1.521.371 1.348.248 2.61.6 3.785 1.058 1.175.458 2.128 1.107 2.858 1.948.742.841 1.113 1.973 1.113 3.396a5.11 5.11 0 0 1-.612 2.468c-.409.742-.996 1.397-1.763 1.966-.767.557-1.689.99-2.765 1.299-1.076.309-2.288.464-3.636.464-1.918 0-3.538-.34-4.862-1.02-1.323-.693-2.325-1.559-3.006-2.598-.668-1.052-1.002-2.115-1.002-3.191h5.827c.024.618.173 1.125.445 1.521.284.396.662.687 1.132.872.47.186 1.014.278 1.633.278.569 0 1.039-.08 1.41-.241.383-.161.674-.377.872-.649.198-.285.297-.613.297-.984Z" fill="#364F6B"/><defs><clipPath id="a"><path fill="#fff" transform="translate(86)" d="M0 0h93v83H0z"/></clipPath></defs></svg>
